<svg width="15" height="10" viewBox="0 0 15 10" fill="none" xmlns="http://www.w3.org/2000/svg">
<path d="M7.53125 10C6.13542 10 4.94792 9.51562 3.96875 8.54688C2.98958 7.57812 2.5 6.39583 2.5 5V4.89062L1.5 5.89062L0.625 5.01563L3.125 2.51562L5.625 5.01563L4.75 5.89062L3.75 4.89062V5C3.75 6.04167 4.11719 6.92708 4.85156 7.65625C5.58594 8.38542 6.47917 8.75 7.53125 8.75C7.80208 8.75 8.06771 8.71875 8.32812 8.65625C8.58854 8.59375 8.84375 8.5 9.09375 8.375L10.0312 9.3125C9.63542 9.54167 9.22917 9.71354 8.8125 9.82812C8.39583 9.94271 7.96875 10 7.53125 10ZM11.875 7.48438L9.375 4.98438L10.25 4.10938L11.25 5.10938V5C11.25 3.95833 10.8828 3.07292 10.1484 2.34375C9.41406 1.61458 8.52083 1.25 7.46875 1.25C7.19792 1.25 6.93229 1.28125 6.67188 1.34375C6.41146 1.40625 6.15625 1.5 5.90625 1.625L4.96875 0.6875C5.36458 0.458333 5.77083 0.286458 6.1875 0.171875C6.60417 0.0572917 7.03125 0 7.46875 0C8.86458 0 10.0521 0.484375 11.0312 1.45312C12.0104 2.42188 12.5 3.60417 12.5 5V5.10938L13.5 4.10938L14.375 4.98438L11.875 7.48438Z" fill="#A1A1AA"/>
</svg>
