<svg width="20" height="20" viewBox="0 0 20 20" fill="none" xmlns="http://www.w3.org/2000/svg">
<path d="M10.0002 16.1542L5.15851 19.0708C4.94462 19.2069 4.72101 19.2653 4.48768 19.2458C4.25435 19.2264 4.05018 19.1486 3.87518 19.0125C3.70018 18.8764 3.56407 18.7063 3.46685 18.5021C3.36962 18.2979 3.35018 18.0694 3.40851 17.8167L4.69185 12.3042L0.404347 8.6C0.209902 8.425 0.0883747 8.2257 0.0397636 8.00209C-0.00884749 7.77848 0.00573584 7.55973 0.0835136 7.34584C0.161291 7.13195 0.277958 6.95695 0.433514 6.82084C0.589069 6.68473 0.802958 6.59723 1.07518 6.55834L6.73351 6.0625L8.92101 0.870837C9.01824 0.637504 9.16893 0.462504 9.3731 0.345837C9.57726 0.229171 9.78629 0.170837 10.0002 0.170837C10.2141 0.170837 10.4231 0.229171 10.6273 0.345837C10.8314 0.462504 10.9821 0.637504 11.0793 0.870837L13.2668 6.0625L18.9252 6.55834C19.1974 6.59723 19.4113 6.68473 19.5668 6.82084C19.7224 6.95695 19.8391 7.13195 19.9168 7.34584C19.9946 7.55973 20.0092 7.77848 19.9606 8.00209C19.912 8.2257 19.7905 8.425 19.596 8.6L15.3085 12.3042L16.5918 17.8167C16.6502 18.0694 16.6307 18.2979 16.5335 18.5021C16.4363 18.7063 16.3002 18.8764 16.1252 19.0125C15.9502 19.1486 15.746 19.2264 15.5127 19.2458C15.2793 19.2653 15.0557 19.2069 14.8418 19.0708L10.0002 16.1542Z" fill="#A9E851"/>
</svg>
